 <svg width="32" height="32" viewBox="0 0 26 35" fill="none" xmlns="http://www.w3.org/2000/svg"> <path d="M0.263207 30.4261C0.863126 32.2187 2.66323 33.7187 4.46345 34.3264C6.56347 34.6188 8.12358 33.959 9.56366 31.3189C11.3638 28.0187 16.1641 26.7944 17.0641 26.5186C28.1648 23.5184 25.4616 10.3264 25.1646 9.72492C24.8646 9.11729 23.0645 0.424367 12.5638 0.724385C4.16334 0.964399 0.863211 7.8248 0.263207 11.225C0.163201 16.9253 -0.275431 28.8167 0.263207 30.4261Z" fill="#6D28D9" /> <path d="M10.5406 27.7297C10.3965 27.9999 10.1532 28.1891 9.81084 28.2973C9.46848 28.4054 9.01801 28.4594 8.45942 28.4594C7.88281 28.4594 7.42333 28.4054 7.08097 28.2973C6.7386 28.1891 6.50436 27.9999 6.37822 27.7297C6.23407 27.4594 6.15299 27.2161 6.13497 26.9999C6.09893 26.8017 6.08091 26.4954 6.08091 26.0809L6.08091 9.94491C6.08091 9.53048 6.09893 9.21514 6.13497 8.99892C6.15299 8.80071 6.23407 8.57547 6.37823 8.3232C6.64851 7.83669 7.41432 7.59343 8.67565 7.59343C9.91896 7.59343 10.6127 8.0349 10.7568 8.91783C11.5136 8.05292 12.5678 7.62046 13.9192 7.62046C15.5409 7.62046 17.0184 8.3232 18.3518 9.72869C19.6853 11.1522 20.352 12.8009 20.352 14.6749C20.352 16.5669 19.6853 18.2246 18.3518 19.6481C17.0004 21.0716 15.5229 21.7834 13.9192 21.7834C12.5858 21.7834 11.5497 21.3329 10.8109 20.432L10.8109 26.108C10.8109 26.5224 10.8019 26.8287 10.7839 27.0269C10.7478 27.2432 10.6667 27.4774 10.5406 27.7297ZM14.9192 13.0532C14.4507 12.5667 13.8831 12.3234 13.2164 12.3234C12.5497 12.3234 12.0002 12.5667 11.5677 13.0532C11.1172 13.5397 10.892 14.0713 10.892 14.6479C10.892 15.2425 11.1082 15.7921 11.5407 16.2966C11.9551 16.8011 12.5227 17.0534 13.2435 17.0534C13.9642 17.0534 14.5408 16.8011 14.9733 16.2966C15.4057 15.8101 15.622 15.2695 15.622 14.6749C15.622 14.0803 15.3877 13.5397 14.9192 13.0532Z" fill="#F4F4F5" /> </svg>
